-
 
http://www.Speed. Cd       the fast  and The Hottest Private Tracker on the net 
http://www.Speed. Cd

Please Seed back to make the speed Faster!!
 ............ NFO .............
-
 
http://www.Speed. Cd[IMG]http://imgr.us/images/sran20ounpwz7vspvvg0.jpg[/IMG]

VAiN . P R E S E N T S . . .

Vehicle 19 2013 WEBRiP READNFO XViD - VAiN

iMDB........: http://www.imdb.com/title/tt1911662/
PLOT........: A foreign traveler (Walker) unknowingly picks up 
a rental car that will tie him to a web of corrupt local police.


T E C H N i C A L . i N F O . . .      

General
Complete name                            : ...Vehicle 19 2013 WEBRiP READNFO XViD - VAiNVehicle 19 2013 WEBRiP READNFO XViD - VAiN.avi
Format                                   : AVI
Format/Info                              : Audio Video Interleave
File size                                : 703 MiB
Duration                                 : 1h 25mn
Overall bit rate                         : 1 154 Kbps
Writing application                      : VirtualDubMod 1.5.10.2 (build 2540/release)
Writing library                          : VirtualDubMod build 2540/release

Video
ID                                       : 0
Format                                   : MPEG-4 Visual
Format profile                           : Advanced Simple@L5
Format settings, BVOP                    : 2
Format settings, QPel                    : No
Format settings, GMC                     : No warppoints
Format settings, Matrix                  : Default (H.263)
Muxing mode                              : Packed bitstream
Codec ID                                 : XVID
Codec ID/Hint                            : XviD
Duration                                 : 1h 25mn
Bit rate                                 : 1 016 Kbps
Width                                    : 720 pixels
Height                                   : 304 pixels
Display aspect ratio                     : 1.85:1
Original display aspect ratio            : 2.35:1
Frame rate                               : 23.976 fps
Color space                              : YUV
Chroma subsampling                       : 4:2:0
Bit depth                                : 8 bits
Scan type                                : Progressive
Compression mode                         : Lossy
Bits/(Pixel*Frame)                       : 0.194
Stream size                              : 619 MiB (88%)
Writing library                          : XviD 64

Audio
ID                                       : 1
Format                                   : MPEG Audio
Format version                           : Version 1
Format profile                           : Layer 3
Mode                                     : Joint stereo
Mode extension                           : MS Stereo
Codec ID                                 : 55
Codec ID/Hint                            : MP3
Duration                                 : 1h 25mn
Bit rate mode                            : Constant
Bit rate                                 : 128 Kbps
Channel(s)                               : 2 channels
Sampling rate                            : 48.0 KHz
Compression mode                         : Lossy
Stream size                              : 78.0 MiB (11%)
Alignment                                : Split accross interleaves
Interleave, duration                     : 42 ms (1.00 video frame)
Interleave, preload duration             : 500 ms
Writing library                          : LAME3.99r
Encoding settings                        : -m j -V 4 -q 2 -lowpass 17 -b 128





E N C O D E R S . N O T E S . . .       

SOURCE......: (arablionz) Vehicle 19 2013 WEBRip-X264 (THANKS)
SAMPLE......: Yes
ADDED NOTE..: I re-sized, de-noised, blurred watermarks, 
adjusted the brightness, contrast, gamma, saturation, colors & sharpened.
Its deffinatley watchable & better than a cam,
check the sample first,
Enjoy...  

READNFO - Has hardcoded arabic subtitles. 
Small blurred top left hand corner throughout the movie.
Large blurred bottom of the screen for the first 2mn 18s.
Source had a very low bitrate.


S C R E E N . S H O T S . . .

[IMG]http://imgr.us/images/t7538d6lkwj306znqz1.png[/IMG]

[IMG]http://imgr.us/images/9ti5a983ndcy20xf1pyo.png[/IMG]

[IMG]http://imgr.us/images/qhatliqq1bzln4lyu47u.png[/IMG]

[IMG]http://imgr.us/images/xu247gfsqae36uf0ojdh.png[/IMG]

[IMG]http://imgr.us/images/0m4dnbuxhpipnojub9ek.png[/IMG]

[IMG]http://imgr.us/images/nwmc3d27c3aylaoi6vle.jpg[/IMG]